#!OML:ASF H:\BreakDance\Project 1\Capture day 1\Session 1\Male.ASF
:FULLY-SPECIFIED
:DEGREES
180
root 18.7768 16.823 2.9892 10.3792 -18.967 5.59322
lowerback -1.33338 -3.32406 -5.88842
upperback 1.55149 -4.28155 -0.365747
thorax 2.75425 -2.24403 2.73734
lowerneck 1.61334 -15.5013 -9.99159
upperneck -9.93185 -20.3609 14.0381
head -0.713828 -10.3808 5.51885
rclavicle -4.13099e-014 3.37685e-014
rhumerus -22.8607 15.129 -90.3756
rradius 31.207
rwrist 2.15694
rhand -30.0342 -17.9245
rfingers 7.12502
rthumb -3.35048 -47.878
lclavicle -4.13099e-014 3.37685e-014
lhumerus -20.1966 -16.1287 86.1889
lradius 23.0583
lwrist -3.87998
lhand -18.9965 -21.9594
lfingers 7.12502
lthumb 7.30855 7.89435
rfemur -44.1182 0.968677 5.2321
rtibia 46.011
rfoot -2.32909 -5.17073
rtoes -6.42639
lfemur -7.2421 -3.2582 -11.7726
ltibia 32.7052
lfoot 0.0418253 -8.78491
ltoes -33.379
181
root 18.9 16.7842 2.88443 10.5305 -19.4411 5.38469
lowerback -1.34677 -3.18614 -5.8106
upperback 1.58776 -4.09701 -0.3894
thorax 2.77452 -2.15161 2.67753
lowerneck 1.69603 -15.4051 -9.99217
upperneck -9.85876 -20.2407 14.072
head -0.714493 -10.324 5.53932
rclavicle -1.07716e-014 -1.35671e-014
rhumerus -23.7181 15.3722 -90.4541
rradius 30.6794
rwrist 2.6937
rhand -29.3159 -17.8472
rfingers 7.12502
rthumb -2.65684 -47.8104
lclavicle -1.07716e-014 -1.35671e-014
lhumerus -21.4901 -16.521 84.989
lradius 23.0671
lwrist -3.56462
lhand -18.5506 -21.1136
lfingers 7.12502
lthumb 7.73897 8.72483
rfemur -43.9994 0.247944 5.8003
rtibia 47.6275
rfoot -3.00986 -3.70423
rtoes -5.96545
lfemur -7.3359 -3.05033 -12.1643
ltibia 32.7306
lfoot -1.59414 -7.86591
ltoes -31.6398
182
root 19.0257 16.734 2.77922 10.6911 -19.8638 5.11275
lowerback -1.36146 -3.06081 -5.63534
upperback 1.64041 -3.93123 -0.40878
thorax 2.80811 -2.0673 2.56647
lowerneck 1.73807 -15.3086 -9.93686
upperneck -9.81001 -20.1141 14.0928
head -0.72379 -10.2644 5.54773
rclavicle 3.95085e-014 -9.49197e-015
rhumerus -24.5705 15.6265 -90.551
rradius 30.2144
rwrist 3.12543
rhand -28.7337 -17.8332
rfingers 7.12502
rthumb -2.09456 -47.8027
lclavicle 3.95085e-014 -9.49197e-015
lhumerus -22.7712 -16.9106 83.7843
lradius 23.111
lwrist -3.34315
lhand -18.1339 -20.3577
lfingers 7.12502
lthumb 8.14108 9.46552
rfemur -43.889 -0.384448 6.35442
rtibia 49.459
rfoot -3.69675 -2.24839
rtoes -5.31087
lfemur -7.47846 -2.77446 -12.4654
ltibia 32.9261
lfoot -3.48395 -7.07721
ltoes -30.4438
183
root 19.1526 16.6734 2.67407 10.8616 -20.2257 4.80902
lowerback -1.37846 -2.97551 -5.44214
upperback 1.69978 -3.82 -0.38515
thorax 2.85748 -2.01065 2.48644
lowerneck 1.72621 -15.1988 -9.9251
upperneck -9.80681 -19.9648 14.1125
head -0.736408 -10.1912 5.56042
rclavicle 1.98785e-015 2.28602e-015
rhumerus -25.441 16.0459 -90.643
rradius 29.8379
rwrist 3.38456
rhand -28.275 -17.9443
rfingers 7.12502
rthumb -1.6515 -47.9177
lclavicle 1.98785e-015 2.28602e-015
lhumerus -24.047 -17.1782 82.614
lradius 23.1747
lwrist -3.14502
lhand -17.681 -19.8667
lfingers 7.12502
lthumb 8.57816 9.93907
rfemur -43.8019 -0.961724 6.8768
rtibia 51.4962
rfoot -4.33301 -0.849287
rtoes -5.18444
lfemur -7.6861 -2.35893 -12.7016
ltibia 33.2774
lfoot -5.6521 -6.3603
ltoes -30.0843
184
root 19.2795 16.6027 2.56854 11.0483 -20.5343 4.51395
lowerback -1.39487 -2.95736 -5.32202
upperback 1.74892 -3.79865 -0.285188
thorax 2.91443 -2.00097 2.52116
lowerneck 1.67291 -15.0679 -10.1141
upperneck -9.80726 -19.7876 14.2298
head -0.715852 -10.1001 5.62235
rclavicle 2.93456e-014 -1.78906e-015
rhumerus -26.3426 16.742 -90.711
rradius 29.5589
rwrist 3.44073
rhand -27.8895 -18.2076
rfingers 7.12502
rthumb -1.2792 -48.1835
lclavicle 2.93456e-014 -1.78906e-015
lhumerus -25.368 -17.2668 81.5249
lradius 23.275
lwrist -2.89427
lhand -17.1984 -19.7402
lfingers 7.12502
lthumb 9.04386 10.046
rfemur -43.7642 -1.46702 7.33275
rtibia 53.7213
rfoot -4.9324 0.400889
rtoes -5.7815
lfemur -7.98919 -1.75204 -12.9088
ltibia 33.7712
lfoot -8.08436 -5.66947
ltoes -30.3318
185
root 19.4051 16.5228 2.46207 11.2554 -20.809 4.2615
lowerback -1.42223 -2.96959 -5.2956
upperback 1.78916 -3.81577 -0.156033
thorax 2.98026 -2.01274 2.63557
lowerneck 1.61722 -14.9354 -10.4426
upperneck -9.85588 -19.6066 14.4487
head -0.684828 -10.007 5.73226
rclavicle -3.65267e-014 5.26779e-015
rhumerus -27.2581 17.4776 -90.7656
rradius 29.3544
rwrist 3.38331
rhand -27.5479 -18.66
rfingers 7.12502
rthumb -0.949282 -48.6376
lclavicle -3.65267e-014 5.26779e-015
lhumerus -26.7318 -17.391 80.5151
lradius 23.4347
lwrist -2.51229
lhand -16.7516 -19.9311
lfingers 7.12502
lthumb 9.47498 9.83586
rfemur -43.7991 -1.88245 7.69272
rtibia 56.1087
rfoot -5.51699 1.43964
rtoes -6.60934
lfemur -8.4158 -0.930102 -13.1217
ltibia 34.3996
lfoot -10.7305 -5.0124
ltoes -30.7719
